<svg xmlns="http://www.w3.org/2000/svg" version="1.1" xmlns:xlink="http://www.w3.org/1999/xlink" xmlns:svgjs="http://svgjs.dev/svgjs" width="1000" height="750" viewBox="0 0 1000 750"><rect width="1000" height="750" fill="#000000"></rect><g transform="matrix(0.834,0,0,0.834,82.49454545454546,115.4193570850203)"><svg viewBox="0 0 396 247" data-background-color="#ffffff" preserveAspectRatio="xMidYMid meet" height="623" width="1000" xmlns="http://www.w3.org/2000/svg" xmlns:xlink="http://www.w3.org/1999/xlink"><g id="tight-bounds" transform="matrix(1,0,0,1,0.2400000000000091,-0.09999999999999432)"><svg viewBox="0 0 395.52 247.2" height="247.2" width="395.52"><g><svg></svg></g><g><svg viewBox="0 0 395.52 247.2" height="247.2" width="395.52"><g transform="matrix(1,0,0,1,75.54432,58.45628867132868)"><svg viewBox="0 0 244.43135999999998 130.28742265734263" height="130.28742265734263" width="244.43135999999998"><g><svg viewBox="0 0 244.43135999999998 130.28742265734263" height="130.28742265734263" width="244.43135999999998"><g><svg viewBox="0 0 244.43135999999998 130.28742265734263" height="130.28742265734263" width="244.43135999999998"><g><svg viewBox="0 0 244.43135999999998 130.28742265734263" height="130.28742265734263" width="244.43135999999998"><g id="textblocktransform"><svg viewBox="0 0 244.43135999999998 130.28742265734263" height="130.28742265734263" width="244.43135999999998" id="textblock"><g><svg viewBox="0 0 244.43135999999998 130.28742265734263" height="130.28742265734263" width="244.43135999999998"><g transform="matrix(1,0,0,1,0,0)"><svg width="244.43135999999998" viewBox="3.75 -34.29999923706055 64.3499984741211 34.29999923706055" height="130.28742265734263" data-palette-color="#35185a"><path d="M3.75 0L3.75-34.3 9.3-34.3 9.3-16.1 26.75-34.3 33.5-34.3 20.35-20.5 33.9 0 27.35 0 16.6-16.6 9.3-10 9.3 0 3.75 0ZM37.95 0L37.95-34.3 43.5-34.3 43.5-16.1 60.95-34.3 67.7-34.3 54.55-20.5 68.1 0 61.55 0 50.8-16.6 43.5-10 43.5 0 37.95 0Z" opacity="1" transform="matrix(1,0,0,1,0,0)" fill="#ffffff" class="undefined-text-0" data-fill-palette-color="primary" id="text-0"></path></svg></g></svg></g></svg></g></svg></g></svg></g></svg></g></svg></g><g><path d="M245.816 0c68.262 0 123.6 55.338 123.6 123.6 0 68.262-55.338 123.6-123.6 123.6-37.504 0-71.107-16.704-93.775-43.077h7.894c21.478 22.898 52.009 37.203 85.881 37.202 65.018 0 117.725-52.707 117.725-117.725 0-65.018-52.707-117.725-117.725-117.725-33.872 0-64.402 14.305-85.881 37.202l-7.894 0c22.668-26.374 56.27-43.077 93.775-43.077z" fill="#ffffff" stroke="transparent" data-fill-palette-color="tertiary"></path></g></svg></g><defs></defs></svg><rect width="395.52" height="247.2" fill="none" stroke="none" visibility="hidden"></rect></g></svg></g></svg>